<svg xmlns="http://www.w3.org/2000/svg" viewBox="0 0 64 64">
  <defs>
    <linearGradient id="bg" x1="0" y1="0" x2="1" y2="1">
      <stop offset="0%" stop-color="#ff8a1f"/>
      <stop offset="100%" stop-color="#ff5c00"/>
    </linearGradient>
  </defs>
  <rect width="64" height="64" rx="16" fill="#13171c"/>
  <rect x="6" y="6" width="52" height="52" rx="14" fill="url(#bg)"/>
  <path d="M23 17h9.4c8.8 0 14.1 3.8 14.1 10.3 0 4.2-2.2 7.3-6 8.8 3.4 1.2 5.3 3.8 5.3 7.4 0 7-5.8 11.5-15 11.5H23V17zm8.4 15.1c4 0 6.3-1.4 6.3-4.1s-2.3-4-6.3-4h-.6v8.1h.6zm.5 16c4.5 0 7-1.6 7-4.8 0-3-2.5-4.6-7-4.6h-1.1v9.4h1.1z" fill="#fff"/>
</svg>
